# xmcd
#
# Track frame offsets:
#	150
#	19835
#	36377
#	52855
#	70915
#	89700
#	101825
#	117945
#	135405
#	157130
#	174175
#
# Disc length: 2508
#
# Revision: 1
# Processed by: cddbd v1.5.1PL0 Copyright (c) Steve Scherf et al.
# Submitted via: EasyCDDAExtractor 7.1.3.1
# Normalized: r0:DSETVAR1
#
DISCID=9309ca0b
DTITLE=Various Artist - Ichiban Blues at Christmas Vol.3
DYEAR=1994
DGENRE=blues
TTITLE0=Jimmy Dawkins - Christmastime Blues
TTITLE1=Sandra Hall Feat. Chicago Bob Nelson - Christmas Tears
TTITLE2=William Bell - Beautiful Memories Of Christmas
TTITLE3=Jerry McCain - Wanna Be Your Santa Claus
TTITLE4=Travis Haddix - Santa Claus Got The Blues
TTITLE5=Slim Fatz - Southern Christmas
TTITLE6=Francine Reed - Merry Christmas Baby
TTITLE7=Kip Anderson - Gonna Have A Merry Christmas
TTITLE8=Bob Thompson - Have Yourself A Merry Christmas
TTITLE9=Willie Hill - Lonely Lonely Christmas
TTITLE10=Trudy Lynn - Please Come Home For Christmas
EXTD=
EXTT0=
EXTT1=
EXTT2=
EXTT3=
EXTT4=
EXTT5=
EXTT6=
EXTT7=
EXTT8=
EXTT9=
EXTT10=
PLAYORDER=
